<?xml version="1.0" standalone="no"?>
<!DOCTYPE svg PUBLIC "-//W3C//DTD SVG 20010904//EN"
 "http://www.w3.org/TR/2001/REC-SVG-20010904/DTD/svg10.dtd">
<svg version="1.0" xmlns="http://www.w3.org/2000/svg"
 width="1920.000000pt" height="1080.000000pt" viewBox="0 0 1920.000000 1080.000000"
 preserveAspectRatio="xMidYMid meet">

<g transform="translate(0.000000,1080.000000) scale(0.100000,-0.100000)"
fill="#000000" stroke="none">
<path d="M11644 7270 c-630 -67 -1120 -479 -1323 -1115 -37 -114 -73 -278 -93
-415 -17 -123 -17 -565 0 -675 56 -352 150 -622 292 -840 295 -449 754 -695
1300 -695 767 0 1356 491 1543 1285 50 213 62 320 61 590 0 282 -13 398 -69
621 -183 717 -683 1172 -1367 1244 -105 11 -239 11 -344 0z m387 -425 c376
-70 669 -311 829 -682 88 -205 129 -410 137 -684 15 -509 -108 -909 -367
-1191 -269 -294 -704 -411 -1120 -302 -352 92 -631 366 -768 755 -137 389
-137 937 0 1329 147 417 465 703 861 775 102 19 327 18 428 0z"/>
<path d="M15464 7270 c-357 -41 -667 -185 -905 -419 -279 -276 -444 -634 -511
-1111 -17 -123 -17 -565 0 -675 56 -352 150 -622 292 -840 295 -449 754 -695
1300 -695 669 0 1213 374 1409 967 16 48 36 118 44 156 l15 67 -222 0 -222 0
-17 -69 c-69 -268 -290 -513 -560 -621 -375 -150 -812 -99 -1115 129 -233 177
-389 438 -466 782 -79 360 -57 805 56 1129 151 430 485 720 897 780 130 19
363 8 483 -23 297 -78 528 -263 648 -520 22 -47 48 -115 57 -151 l18 -66 221
0 222 0 -15 68 c-127 573 -561 986 -1147 1092 -125 23 -372 33 -482 20z"/>
<path d="M2097 5426 c-356 -1003 -647 -1827 -647 -1830 0 -3 185 -5 411 -4
l411 3 138 406 c75 223 140 411 144 418 5 8 182 11 662 11 360 0 654 -2 654
-5 0 -4 200 -643 246 -787 l16 -48 414 0 413 0 -612 1830 -612 1830 -495 0
-496 0 -647 -1824z m1362 308 c117 -372 215 -683 218 -690 3 -8 1 -14 -4 -14
-5 0 -109 83 -232 184 l-223 184 -187 -145 c-102 -81 -205 -162 -228 -181 -24
-19 -43 -33 -43 -31 0 6 436 1310 449 1342 6 15 16 27 24 27 9 0 85 -227 226
-676z"/>
<path d="M5740 5405 l0 -1825 50 0 50 0 0 1825 0 1825 -50 0 -50 0 0 -1825z"/>
<path d="M6740 5406 l0 -1826 623 0 c365 0 669 4 733 11 779 75 1287 519 1454
1268 55 248 71 635 36 890 -60 445 -209 774 -466 1032 -227 227 -481 353 -855
421 -102 19 -161 21 -817 25 l-708 4 0 -1825z m1440 1406 c555 -100 878 -455
976 -1072 21 -132 24 -484 5 -620 -59 -439 -231 -747 -521 -938 -143 -94 -296
-151 -510 -188 -90 -16 -163 -19 -525 -19 l-420 0 -3 1420 c-1 781 0 1426 3
1434 4 11 77 13 443 8 384 -4 451 -7 552 -25z"/>
</g>
</svg>
